<svg xmlns="http://www.w3.org/2000/svg" xmlns:xlink="http://www.w3.org/1999/xlink" xmlns:lucid="lucid" width="1281" height="741"><g transform="translate(-79.5 80.5)" lucid:page-tab-id="0_0"><path d="M0-500h1500v1500H0z" fill="#fff"/><path d="M100-32a8 8 0 0 1 8-8h184a8 8 0 0 1 8 8V88a8 8 0 0 1-8 8H108a8 8 0 0 1-8-8z" fill="#fff"/><path d="M100-32a8 8 0 0 1 8-8h184a8 8 0 0 1 8 8V88a8 8 0 0 1-8 8H108a8 8 0 0 1-8-8zM100 0h200" stroke="#3a414a" fill="none"/><use xlink:href="#a" transform="matrix(1,0,0,1,110,-40) translate(46.05 23.6)"/><use xlink:href="#b" transform="matrix(1,0,0,1,105,2.5) translate(88.025 17.1)"/><use xlink:href="#c" transform="matrix(1,0,0,1,105,34.5) translate(72.525 17.1)"/><use xlink:href="#d" transform="matrix(1,0,0,1,105,66.5) translate(88.025 17.1)"/><path d="M810.67-32a8 8 0 0 1 8-8h184a8 8 0 0 1 8 8V88a8 8 0 0 1-8 8h-184a8 8 0 0 1-8-8z" fill="#fff"/><path d="M810.67-32a8 8 0 0 1 8-8h184a8 8 0 0 1 8 8V88a8 8 0 0 1-8 8h-184a8 8 0 0 1-8-8zM810.67 0h200" stroke="#3a414a" fill="none"/><use xlink:href="#e" transform="matrix(1,0,0,1,820.6666666666666,-40) translate(68.525 23.6)"/><use xlink:href="#f" transform="matrix(1,0,0,1,815.6666666666666,2.5) translate(88.025 17.1)"/><use xlink:href="#c" transform="matrix(1,0,0,1,815.6666666666666,34.5) translate(72.525 17.1)"/><path d="M820 288a8 8 0 0 1 8-8h184a8 8 0 0 1 8 8v344a8 8 0 0 1-8 8H828a8 8 0 0 1-8-8z" fill="#fff"/><path d="M820 288a8 8 0 0 1 8-8h184a8 8 0 0 1 8 8v344a8 8 0 0 1-8 8H828a8 8 0 0 1-8-8zM820 320h200" stroke="#3a414a" fill="none"/><use xlink:href="#g" transform="matrix(1,0,0,1,830,280) translate(59.074999999999996 23.6)"/><use xlink:href="#h" transform="matrix(1,0,0,1,825,322.5) translate(73.075 17.1)"/><use xlink:href="#i" transform="matrix(1,0,0,1,825,354.5) translate(88.025 17.1)"/><use xlink:href="#c" transform="matrix(1,0,0,1,825,386.5) translate(72.525 17.1)"/><use xlink:href="#j" transform="matrix(1,0,0,1,825,418.5) translate(71 17.1)"/><use xlink:href="#k" transform="matrix(1,0,0,1,825,450.5) translate(57.574999999999996 17.1)"/><use xlink:href="#l" transform="matrix(1,0,0,1,825,482.5) translate(46.599999999999994 17.1)"/><use xlink:href="#m" transform="matrix(1,0,0,1,825,514.5) translate(71.5 17.1)"/><use xlink:href="#n" transform="matrix(1,0,0,1,825,546.5) translate(60.525 17.1)"/><use xlink:href="#o" transform="matrix(1,0,0,1,825,578.5) translate(52.55 17.1)"/><use xlink:href="#d" transform="matrix(1,0,0,1,825,610.5) translate(88.025 17.1)"/><path d="M635.33 0c0 33.14-35.8 60-80 60-44.18 0-80-26.86-80-60s35.82-60 80-60c44.2 0 80 26.86 80 60z" stroke="#3a414a" fill="#fff"/><use xlink:href="#p" transform="matrix(1,0,0,1,475.3333333333333,-60) translate(32.10499999999999 63.15)"/><path d="M301 15.94h508.67" stroke="#3a414a" fill="none"/><path d="M301 16.41l-.5.02v-.96h.5zM810.17 16.41l-.52.02v-.96h.52z" stroke="#3a414a" stroke-width=".05" fill="#3a414a"/><path d="M760-12a8 8 0 0 1 8-8h30.9a8 8 0 0 1 8 8V3.6a8 8 0 0 1-8 8H768a8 8 0 0 1-8-8z" fill="#fff" fill-opacity="0"/><use xlink:href="#q" transform="matrix(1,0,0,1,765,-15) translate(0.05000000000000071 15.775)"/><path d="M300-12a8 8 0 0 1 8-8h19a8 8 0 0 1 8 8V3.6a8 8 0 0 1-8 8h-19a8 8 0 0 1-8-8z" fill="#fff" fill-opacity="0"/><use xlink:href="#r" transform="matrix(1,0,0,1,305,-15) translate(0 15.775)"/><path d="M1340 166c0 38.66-35.82 70-80 70s-80-31.34-80-70 35.82-70 80-70 80 31.34 80 70z" stroke="#3a414a" fill="#fff"/><use xlink:href="#s" transform="matrix(1,0,0,1,1180,96) translate(17.629999999999992 51.41)"/><use xlink:href="#t" transform="matrix(1,0,0,1,1180,96) translate(80.00500000000001 73.01)"/><use xlink:href="#u" transform="matrix(1,0,0,1,1180,96) translate(80.005 94.61000000000001)"/><path d="M1011.67 48.1H1248a12 12 0 0 1 12 12V95" stroke="#3a414a" fill="none"/><path d="M1011.68 48.58h-.5v-.95h.5zM1260.47 95.52l-.46-.02h-.47V95h.94z" stroke="#3a414a" stroke-width=".05" fill="#3a414a"/><path d="M1260 237v182.86a12 12 0 0 1-12 12h-227" stroke="#3a414a" fill="none"/><path d="M1260 236.5h.47v.5h-.94v-.5zM1021 432.33h-.5v-.94h.5z" stroke="#3a414a" stroke-width=".05" fill="#3a414a"/><path d="M1180 160.88a.88.88 0 0 1 .88-.88h158.24a.88.88 0 0 1 .88.88.88.88 0 0 1-.88.87h-158.24a.88.88 0 0 1-.88-.88z" stroke="#3a414a"/><path d="M1040 19.6a8 8 0 0 1 8-8h19a8 8 0 0 1 8 8v15.6a8 8 0 0 1-8 8h-19a8 8 0 0 1-8-8z" fill="#fff" fill-opacity="0"/><use xlink:href="#r" transform="matrix(1,0,0,1,1045,16.6) translate(0 15.775)"/><path d="M1040 408a8 8 0 0 1 8-8h19a8 8 0 0 1 8 8v15.6a8 8 0 0 1-8 8h-19a8 8 0 0 1-8-8z" fill="#fff" fill-opacity="0"/><g><use xlink:href="#v" transform="matrix(1,0,0,1,1045,405) translate(0 15.775)"/></g><defs><path fill="#3a414a" d="M30-248c118-7 216 8 213 122C240-48 200 0 122 0H30v-248zM63-27c89 8 146-16 146-99s-60-101-146-95v194" id="w"/><path fill="#3a414a" d="M141-36C126-15 110 5 73 4 37 3 15-17 15-53c-1-64 63-63 125-63 3-35-9-54-41-54-24 1-41 7-42 31l-33-3c5-37 33-52 76-52 45 0 72 20 72 64v82c-1 20 7 32 28 27v20c-31 9-61-2-59-35zM48-53c0 20 12 33 32 33 41-3 63-29 60-74-43 2-92-5-92 41" id="x"/><path fill="#3a414a" d="M59-47c-2 24 18 29 38 22v24C64 9 27 4 27-40v-127H5v-23h24l9-43h21v43h35v23H59v120" id="y"/><path fill="#3a414a" d="M96-169c-40 0-48 33-48 73s9 75 48 75c24 0 41-14 43-38l32 2c-6 37-31 61-74 61-59 0-76-41-82-99-10-93 101-131 147-64 4 7 5 14 7 22l-32 3c-4-21-16-35-41-35" id="z"/><path fill="#3a414a" d="M100-194c63 0 86 42 84 106H49c0 40 14 67 53 68 26 1 43-12 49-29l28 8c-11 28-37 45-77 45C44 4 14-33 15-96c1-61 26-98 85-98zm52 81c6-60-76-77-97-28-3 7-6 17-6 28h103" id="A"/><path fill="#3a414a" d="M117-194c89-4 53 116 60 194h-32v-121c0-31-8-49-39-48C34-167 62-67 57 0H25l-1-190h30c1 10-1 24 2 32 11-22 29-35 61-36" id="B"/><path fill="#3a414a" d="M114-163C36-179 61-72 57 0H25l-1-190h30c1 12-1 29 2 39 6-27 23-49 58-41v29" id="C"/><g id="a"><use transform="matrix(0.05,0,0,0.05,0,0)" xlink:href="#w"/><use transform="matrix(0.05,0,0,0.05,12.950000000000001,0)" xlink:href="#x"/><use transform="matrix(0.05,0,0,0.05,22.950000000000003,0)" xlink:href="#y"/><use transform="matrix(0.05,0,0,0.05,27.950000000000003,0)" xlink:href="#x"/><use transform="matrix(0.05,0,0,0.05,37.95,0)" xlink:href="#z"/><use transform="matrix(0.05,0,0,0.05,46.95,0)" xlink:href="#A"/><use transform="matrix(0.05,0,0,0.05,56.95,0)" xlink:href="#B"/><use transform="matrix(0.05,0,0,0.05,66.95,0)" xlink:href="#y"/><use transform="matrix(0.05,0,0,0.05,71.95,0)" xlink:href="#A"/><use transform="matrix(0.05,0,0,0.05,81.95,0)" xlink:href="#C"/></g><path fill="#3a414a" d="M24-231v-30h32v30H24zM24 0v-190h32V0H24" id="D"/><path fill="#3a414a" d="M85-194c31 0 48 13 60 33l-1-100h32l1 261h-30c-2-10 0-23-3-31C134-8 116 4 85 4 32 4 16-35 15-94c0-66 23-100 70-100zm9 24c-40 0-46 34-46 75 0 40 6 74 45 74 42 0 51-32 51-76 0-42-9-74-50-73" id="E"/><g id="b"><use transform="matrix(0.05,0,0,0.05,0,0)" xlink:href="#D"/><use transform="matrix(0.05,0,0,0.05,3.95,0)" xlink:href="#E"/><path fill="#3a414a" d="M-.9 1.25h15.75v1.32H-.9z"/></g><path fill="#3a414a" d="M210-169c-67 3-38 105-44 169h-31v-121c0-29-5-50-35-48C34-165 62-65 56 0H25l-1-190h30c1 10-1 24 2 32 10-44 99-50 107 0 11-21 27-35 58-36 85-2 47 119 55 194h-31v-121c0-29-5-49-35-48" id="F"/><g id="c"><use transform="matrix(0.05,0,0,0.05,0,0)" xlink:href="#B"/><use transform="matrix(0.05,0,0,0.05,10,0)" xlink:href="#x"/><use transform="matrix(0.05,0,0,0.05,20,0)" xlink:href="#F"/><use transform="matrix(0.05,0,0,0.05,34.95,0)" xlink:href="#A"/></g><path fill="#3a414a" d="M115-194c55 1 70 41 70 98S169 2 115 4C84 4 66-9 55-30l1 105H24l-1-265h31l2 30c10-21 28-34 59-34zm-8 174c40 0 45-34 45-75s-6-73-45-74c-42 0-51 32-51 76 0 43 10 73 51 73" id="G"/><g id="d"><use transform="matrix(0.05,0,0,0.05,0,0)" xlink:href="#D"/><use transform="matrix(0.05,0,0,0.05,3.95,0)" xlink:href="#G"/></g><path fill="#3a414a" d="M190 0L58-211 59 0H30v-248h39L202-35l-2-213h31V0h-41" id="H"/><path fill="#3a414a" d="M100-194c62-1 85 37 85 99 1 63-27 99-86 99S16-35 15-95c0-66 28-99 85-99zM99-20c44 1 53-31 53-75 0-43-8-75-51-75s-53 32-53 75 10 74 51 75" id="I"/><g id="e"><use transform="matrix(0.05,0,0,0.05,0,0)" xlink:href="#H"/><use transform="matrix(0.05,0,0,0.05,12.950000000000001,0)" xlink:href="#I"/><use transform="matrix(0.05,0,0,0.05,22.950000000000003,0)" xlink:href="#E"/><use transform="matrix(0.05,0,0,0.05,32.95,0)" xlink:href="#A"/></g><g id="f"><use transform="matrix(0.05,0,0,0.05,0,0)" xlink:href="#D"/><use transform="matrix(0.05,0,0,0.05,3.95,0)" xlink:href="#G"/><path fill="#3a414a" d="M-.9 1.25h15.75v1.32H-.9z"/></g><g id="g"><use transform="matrix(0.05,0,0,0.05,0,0)" xlink:href="#w"/><use transform="matrix(0.05,0,0,0.05,12.950000000000001,0)" xlink:href="#I"/><use transform="matrix(0.05,0,0,0.05,22.950000000000003,0)" xlink:href="#F"/><use transform="matrix(0.05,0,0,0.05,37.900000000000006,0)" xlink:href="#x"/><use transform="matrix(0.05,0,0,0.05,47.900000000000006,0)" xlink:href="#D"/><use transform="matrix(0.05,0,0,0.05,51.85,0)" xlink:href="#B"/></g><path fill="#3a414a" d="M232-93c-1 65-40 97-104 97C67 4 28-28 28-90v-158h33c8 89-33 224 67 224 102 0 64-133 71-224h33v155" id="J"/><path fill="#3a414a" d="M33 0v-248h34V0H33" id="K"/><g id="h"><use transform="matrix(0.05,0,0,0.05,0,0)" xlink:href="#J"/><use transform="matrix(0.05,0,0,0.05,12.950000000000001,0)" xlink:href="#J"/><use transform="matrix(0.05,0,0,0.05,25.900000000000002,0)" xlink:href="#K"/><use transform="matrix(0.05,0,0,0.05,30.900000000000002,0)" xlink:href="#w"/><path fill="#3a414a" d="M-.9 1.25h45.65v1.32H-.9z"/></g><g id="i"><use transform="matrix(0.05,0,0,0.05,0,0)" xlink:href="#D"/><use transform="matrix(0.05,0,0,0.05,3.95,0)" xlink:href="#E"/></g><path fill="#3a414a" d="M135-143c-3-34-86-38-87 0 15 53 115 12 119 90S17 21 10-45l28-5c4 36 97 45 98 0-10-56-113-15-118-90-4-57 82-63 122-42 12 7 21 19 24 35" id="L"/><path fill="#3a414a" d="M84 4C-5 8 30-112 23-190h32v120c0 31 7 50 39 49 72-2 45-101 50-169h31l1 190h-30c-1-10 1-25-2-33-11 22-28 36-60 37" id="M"/><g id="j"><use transform="matrix(0.05,0,0,0.05,0,0)" xlink:href="#L"/><use transform="matrix(0.05,0,0,0.05,9,0)" xlink:href="#y"/><use transform="matrix(0.05,0,0,0.05,14,0)" xlink:href="#x"/><use transform="matrix(0.05,0,0,0.05,24,0)" xlink:href="#y"/><use transform="matrix(0.05,0,0,0.05,29,0)" xlink:href="#M"/><use transform="matrix(0.05,0,0,0.05,39,0)" xlink:href="#L"/></g><path fill="#3a414a" d="M141 0L90-78 38 0H4l68-98-65-92h35l48 74 47-74h35l-64 92 68 98h-35" id="N"/><path fill="#3a414a" d="M-5 72V49h209v23H-5" id="O"/><g id="k"><use transform="matrix(0.05,0,0,0.05,0,0)" xlink:href="#F"/><use transform="matrix(0.05,0,0,0.05,14.950000000000001,0)" xlink:href="#x"/><use transform="matrix(0.05,0,0,0.05,24.950000000000003,0)" xlink:href="#N"/><use transform="matrix(0.05,0,0,0.05,33.95,0)" xlink:href="#O"/><use transform="matrix(0.05,0,0,0.05,43.95,0)" xlink:href="#C"/><use transform="matrix(0.05,0,0,0.05,49.900000000000006,0)" xlink:href="#x"/><use transform="matrix(0.05,0,0,0.05,59.900000000000006,0)" xlink:href="#F"/></g><g id="l"><use transform="matrix(0.05,0,0,0.05,0,0)" xlink:href="#z"/><use transform="matrix(0.05,0,0,0.05,9,0)" xlink:href="#M"/><use transform="matrix(0.05,0,0,0.05,19,0)" xlink:href="#C"/><use transform="matrix(0.05,0,0,0.05,24.95,0)" xlink:href="#C"/><use transform="matrix(0.05,0,0,0.05,30.899999999999995,0)" xlink:href="#A"/><use transform="matrix(0.05,0,0,0.05,40.9,0)" xlink:href="#B"/><use transform="matrix(0.05,0,0,0.05,50.9,0)" xlink:href="#y"/><use transform="matrix(0.05,0,0,0.05,55.900000000000006,0)" xlink:href="#O"/><use transform="matrix(0.05,0,0,0.05,65.9,0)" xlink:href="#C"/><use transform="matrix(0.05,0,0,0.05,71.85000000000001,0)" xlink:href="#x"/><use transform="matrix(0.05,0,0,0.05,81.85000000000001,0)" xlink:href="#F"/></g><path fill="#3a414a" d="M108 0H70L1-190h34L89-25l56-165h34" id="P"/><g id="m"><use transform="matrix(0.05,0,0,0.05,0,0)" xlink:href="#P"/><use transform="matrix(0.05,0,0,0.05,9,0)" xlink:href="#z"/><use transform="matrix(0.05,0,0,0.05,18,0)" xlink:href="#G"/><use transform="matrix(0.05,0,0,0.05,28,0)" xlink:href="#M"/><use transform="matrix(0.05,0,0,0.05,38,0)" xlink:href="#L"/></g><g id="n"><use transform="matrix(0.05,0,0,0.05,0,0)" xlink:href="#P"/><use transform="matrix(0.05,0,0,0.05,9,0)" xlink:href="#B"/><use transform="matrix(0.05,0,0,0.05,19,0)" xlink:href="#z"/><use transform="matrix(0.05,0,0,0.05,28,0)" xlink:href="#O"/><use transform="matrix(0.05,0,0,0.05,38,0)" xlink:href="#G"/><use transform="matrix(0.05,0,0,0.05,48,0)" xlink:href="#I"/><use transform="matrix(0.05,0,0,0.05,58,0)" xlink:href="#C"/><use transform="matrix(0.05,0,0,0.05,63.95,0)" xlink:href="#y"/></g><path fill="#3a414a" d="M179-190L93 31C79 59 56 82 12 73V49c39 6 53-20 64-50L1-190h34L92-34l54-156h33" id="Q"/><g id="o"><use transform="matrix(0.05,0,0,0.05,0,0)" xlink:href="#G"/><use transform="matrix(0.05,0,0,0.05,10,0)" xlink:href="#C"/><use transform="matrix(0.05,0,0,0.05,15.949999999999998,0)" xlink:href="#I"/><use transform="matrix(0.05,0,0,0.05,25.950000000000003,0)" xlink:href="#N"/><use transform="matrix(0.05,0,0,0.05,34.95,0)" xlink:href="#Q"/><use transform="matrix(0.05,0,0,0.05,43.95,0)" xlink:href="#O"/><use transform="matrix(0.05,0,0,0.05,53.95,0)" xlink:href="#G"/><use transform="matrix(0.05,0,0,0.05,63.95,0)" xlink:href="#I"/><use transform="matrix(0.05,0,0,0.05,73.95,0)" xlink:href="#C"/><use transform="matrix(0.05,0,0,0.05,79.9,0)" xlink:href="#y"/></g><path fill="#3a414a" d="M197 0v-115H63V0H30v-248h33v105h134v-105h34V0h-34" id="R"/><g id="p"><use transform="matrix(0.05,0,0,0.05,0,0)" xlink:href="#R"/><use transform="matrix(0.05,0,0,0.05,12.950000000000001,0)" xlink:href="#Q"/><use transform="matrix(0.05,0,0,0.05,21.950000000000003,0)" xlink:href="#G"/><use transform="matrix(0.05,0,0,0.05,31.950000000000003,0)" xlink:href="#A"/><use transform="matrix(0.05,0,0,0.05,41.95,0)" xlink:href="#C"/><use transform="matrix(0.05,0,0,0.05,47.900000000000006,0)" xlink:href="#P"/><use transform="matrix(0.05,0,0,0.05,56.900000000000006,0)" xlink:href="#D"/><use transform="matrix(0.05,0,0,0.05,60.85,0)" xlink:href="#L"/><use transform="matrix(0.05,0,0,0.05,69.85000000000001,0)" xlink:href="#A"/><use transform="matrix(0.05,0,0,0.05,79.85000000000001,0)" xlink:href="#M"/><use transform="matrix(0.05,0,0,0.05,89.85000000000001,0)" xlink:href="#C"/></g><path fill="#3a414a" d="M87 75C49 33 22-17 22-94c0-76 28-126 65-167h31c-38 41-64 92-64 168S80 34 118 75H87" id="S"/><path fill="#3a414a" d="M27 0v-27h64v-190l-56 39v-29l58-41h29v221h61V0H27" id="T"/><path fill="#3a414a" d="M68-38c1 34 0 65-14 84H32c9-13 17-26 17-46H33v-38h35" id="U"/><path fill="#3a414a" d="M33-261c38 41 65 92 65 168S71 34 33 75H2C39 34 66-17 66-93S39-220 2-261h31" id="V"/><g id="q"><use transform="matrix(0.05,0,0,0.05,0,0)" xlink:href="#S"/><use transform="matrix(0.05,0,0,0.05,5.95,0)" xlink:href="#T"/><use transform="matrix(0.05,0,0,0.05,15.949999999999998,0)" xlink:href="#U"/><use transform="matrix(0.05,0,0,0.05,20.95,0)" xlink:href="#T"/><use transform="matrix(0.05,0,0,0.05,30.950000000000003,0)" xlink:href="#V"/></g><path fill="#3a414a" d="M101-251c68 0 85 55 85 127S166 4 100 4C33 4 14-52 14-124c0-73 17-127 87-127zm-1 229c47 0 54-49 54-102s-4-102-53-102c-51 0-55 48-55 102 0 53 5 102 54 102" id="W"/><g id="r"><use transform="matrix(0.05,0,0,0.05,0,0)" xlink:href="#W"/><use transform="matrix(0.05,0,0,0.05,10,0)" xlink:href="#U"/><use transform="matrix(0.05,0,0,0.05,15,0)" xlink:href="#B"/></g><path fill="#3a414a" d="M140-251c81 0 123 46 123 126C263-46 219 4 140 4 59 4 17-45 17-125s42-126 123-126zm0 227c63 0 89-41 89-101s-29-99-89-99c-61 0-89 39-89 99S79-25 140-24" id="X"/><path fill="#3a414a" d="M206 0h-36l-40-164L89 0H53L-1-190h32L70-26l43-164h34l41 164 42-164h31" id="Y"/><g id="s"><use transform="matrix(0.05,0,0,0.05,0,0)" xlink:href="#w"/><use transform="matrix(0.05,0,0,0.05,12.950000000000001,0)" xlink:href="#I"/><use transform="matrix(0.05,0,0,0.05,22.950000000000003,0)" xlink:href="#F"/><use transform="matrix(0.05,0,0,0.05,37.900000000000006,0)" xlink:href="#x"/><use transform="matrix(0.05,0,0,0.05,47.900000000000006,0)" xlink:href="#D"/><use transform="matrix(0.05,0,0,0.05,51.85,0)" xlink:href="#B"/><use transform="matrix(0.05,0,0,0.05,61.85,0)" xlink:href="#O"/><use transform="matrix(0.05,0,0,0.05,71.85000000000001,0)" xlink:href="#X"/><use transform="matrix(0.05,0,0,0.05,85.85000000000001,0)" xlink:href="#Y"/><use transform="matrix(0.05,0,0,0.05,98.80000000000001,0)" xlink:href="#B"/><use transform="matrix(0.05,0,0,0.05,108.80000000000001,0)" xlink:href="#A"/><use transform="matrix(0.05,0,0,0.05,118.80000000000001,0)" xlink:href="#C"/></g><g id="v"><use transform="matrix(0.05,0,0,0.05,0,0)" xlink:href="#T"/><use transform="matrix(0.05,0,0,0.05,10,0)" xlink:href="#U"/><use transform="matrix(0.05,0,0,0.05,15,0)" xlink:href="#T"/></g></defs></g></svg>